<?xml version="1.0" standalone="no"?>
<!DOCTYPE svg PUBLIC "-//W3C//DTD SVG 20010904//EN"
 "http://www.w3.org/TR/2001/REC-SVG-20010904/DTD/svg10.dtd">
<svg version="1.0" xmlns="http://www.w3.org/2000/svg"
 width="3125.000000pt" height="1875.000000pt" viewBox="0 0 3125.000000 1875.000000"
 preserveAspectRatio="xMidYMid meet">

<g transform="translate(0.000000,1875.000000) scale(0.100000,-0.100000)"
fill="#000000" stroke="none">
<path d="M6380 13040 l0 -670 -335 0 -335 0 0 -405 0 -405 335 0 335 0 0
-1670 0 -1670 400 0 400 0 0 1670 0 1670 335 0 335 0 0 405 0 405 -335 0 -335
0 0 670 0 670 -400 0 -400 0 0 -670z"/>
<path d="M19090 10965 l0 -2745 400 0 400 0 -2 2743 -3 2742 -397 3 -398 2 0
-2745z"/>
<path d="M25920 11959 c0 -1159 4 -1792 11 -1872 22 -259 86 -491 194 -716
278 -573 808 -1009 1405 -1154 188 -46 318 -61 535 -61 224 0 364 17 555 65
575 147 1100 580 1376 1134 315 632 279 1440 -90 2045 -171 280 -434 553 -696
723 -339 219 -701 316 -1140 304 -211 -5 -337 -24 -515 -75 -264 -76 -525
-220 -740 -408 l-85 -75 -2 918 -3 918 -402 3 -403 2 0 -1751z m2405 -354
c103 -21 238 -66 317 -106 323 -161 598 -478 702 -807 80 -255 78 -570 -5
-825 -110 -337 -402 -658 -735 -807 -283 -128 -655 -145 -962 -44 -205 67
-373 176 -543 350 -195 202 -310 426 -354 693 -26 152 -17 420 18 551 55 211
134 363 272 529 221 264 534 440 856 481 103 12 338 5 434 -15z"/>
<path d="M2885 12414 c-365 -51 -677 -182 -990 -418 -110 -82 -346 -321 -434
-438 -224 -302 -355 -628 -401 -1003 -22 -179 -13 -478 21 -670 95 -545 440
-1057 938 -1389 381 -255 845 -373 1324 -337 527 39 959 232 1336 596 358 347
563 739 637 1220 23 151 23 479 0 630 -74 478 -291 889 -650 1232 -325 311
-687 495 -1116 569 -138 23 -521 28 -665 8z m470 -795 c288 -35 537 -156 757
-367 225 -216 356 -460 404 -750 19 -118 14 -389 -11 -495 -57 -252 -173 -462
-360 -652 -255 -260 -536 -387 -891 -402 -403 -17 -725 108 -1010 392 -282
281 -408 606 -391 1009 15 342 138 620 384 868 308 312 693 449 1118 397z"/>
<path d="M10100 12419 c-285 -32 -620 -148 -850 -295 -272 -173 -515 -411
-693 -677 -451 -675 -450 -1644 1 -2318 529 -788 1437 -1138 2357 -908 572
143 1095 568 1373 1117 142 278 208 544 219 877 19 536 -147 1025 -479 1420
-380 452 -834 708 -1381 780 -127 16 -418 19 -547 4z m560 -823 c251 -57 463
-177 653 -369 322 -324 449 -731 371 -1187 -46 -264 -184 -512 -401 -720 -113
-109 -218 -183 -348 -245 -350 -170 -816 -166 -1165 10 -346 174 -614 503
-705 863 -97 385 -25 789 196 1102 64 91 228 257 324 328 128 95 326 185 491
222 164 37 415 35 584 -4z"/>
<path d="M14409 12414 c-501 -90 -916 -505 -1005 -1004 -9 -49 -15 -145 -15
-225 -1 -273 54 -477 177 -668 52 -80 193 -226 268 -276 64 -44 309 -166 629
-312 304 -139 374 -179 461 -259 181 -170 188 -405 16 -581 -173 -176 -462
-187 -627 -23 -48 49 -104 155 -127 244 -8 30 -18 54 -23 54 -35 -5 -750 -199
-757 -205 -15 -14 42 -188 99 -306 173 -355 489 -603 865 -677 259 -51 546
-17 776 93 143 68 241 138 359 256 257 256 367 541 352 917 -9 252 -66 439
-190 623 -58 86 -180 209 -264 265 -98 65 -338 186 -639 320 -341 152 -469
243 -538 377 -140 278 118 627 444 599 95 -8 183 -48 244 -111 50 -51 107
-156 127 -235 7 -29 18 -54 24 -56 11 -4 763 190 772 200 10 10 -57 207 -102
301 -60 124 -131 229 -221 325 -184 195 -414 320 -668 365 -109 19 -332 19
-437 -1z"/>
<path d="M22640 12419 c-199 -22 -459 -96 -640 -181 -433 -203 -848 -618
-1047 -1047 -264 -567 -257 -1284 16 -1846 167 -343 453 -666 776 -878 507
-332 1193 -407 1791 -196 197 69 435 209 619 362 l90 75 3 -244 2 -244 400 0
400 0 0 1103 c0 1210 -1 1243 -60 1484 -91 377 -283 705 -587 1005 -187 186
-340 296 -564 407 -300 149 -586 212 -949 210 -96 -1 -209 -5 -250 -10z m425
-799 c481 -55 919 -400 1099 -866 57 -148 79 -273 79 -459 1 -240 -37 -407
-139 -605 -133 -259 -378 -499 -635 -619 -351 -165 -812 -160 -1154 12 -323
162 -581 457 -688 788 -44 136 -61 251 -60 424 0 286 64 497 221 735 68 103
227 265 342 350 263 193 594 278 935 240z"/>
<path d="M17077 9013 c-4 -3 -7 -183 -7 -400 l0 -393 400 0 400 0 0 400 0 400
-393 0 c-217 0 -397 -3 -400 -7z"/>
<path d="M1042 7058 l3 -43 14582 -3 14583 -2 0 45 0 45 -14586 0 -14585 0 3
-42z"/>
<path d="M2224 6136 c-135 -42 -241 -181 -252 -328 l-5 -68 -33 0 -34 0 0 -70
0 -70 35 0 35 0 0 -275 0 -275 70 0 70 0 0 275 0 275 70 0 71 0 -3 68 -3 67
-67 3 -68 3 0 55 c0 100 71 190 169 214 l51 12 0 64 0 64 -32 -1 c-18 0 -51
-6 -74 -13z"/>
<path d="M13460 6015 l0 -135 -70 0 -70 0 0 -70 0 -70 70 0 70 0 0 -345 0
-345 70 0 70 0 0 345 0 345 65 0 65 0 0 70 0 70 -65 0 -65 0 0 135 0 135 -70
0 -70 0 0 -135z"/>
<path d="M15890 5600 l0 -550 70 0 69 0 3 278 3 279 28 41 c79 121 257 138
348 35 57 -66 59 -78 59 -368 l0 -265 71 0 70 0 -3 288 c-3 287 -3 287 -30
344 -34 72 -98 143 -163 176 -43 23 -62 27 -135 27 -96 0 -150 -19 -213 -75
l-37 -32 0 186 0 186 -70 0 -70 0 0 -550z"/>
<path d="M18330 6015 l0 -134 -67 -3 -68 -3 -3 -67 -3 -68 71 0 70 0 0 -345 0
-345 70 0 70 0 0 345 0 345 70 0 71 0 -3 68 -3 67 -67 3 -68 3 0 134 0 135
-70 0 -70 0 0 -135z"/>
<path d="M3134 5872 c-70 -24 -145 -82 -187 -144 -59 -86 -67 -137 -67 -425
l0 -253 69 0 70 0 3 278 3 279 28 41 c34 52 93 92 146 99 l41 6 0 68 c0 69 0
69 -27 69 -16 -1 -51 -9 -79 -18z"/>
<path d="M4140 5876 c-74 -20 -120 -47 -185 -107 -99 -93 -143 -207 -132 -347
12 -164 121 -303 284 -362 53 -19 77 -22 161 -18 86 3 107 8 164 36 264 130
324 477 118 683 -31 31 -78 68 -106 82 -90 45 -211 59 -304 33z m225 -150
c101 -47 175 -157 175 -260 0 -82 -27 -144 -89 -207 -46 -46 -70 -61 -116 -74
-144 -42 -289 25 -353 163 -34 74 -29 186 11 255 33 56 97 112 151 131 66 23
162 20 221 -8z"/>
<path d="M5596 5873 c-65 -23 -148 -100 -183 -171 l-28 -57 -3 -297 -3 -298
70 0 71 0 0 280 c0 239 2 286 16 313 21 42 52 75 86 93 35 18 121 18 157 -1
39 -20 78 -69 91 -113 5 -21 10 -151 10 -304 l0 -268 70 0 70 0 0 285 c0 265
1 289 20 325 28 56 72 83 141 88 68 5 121 -19 157 -72 38 -55 42 -91 42 -363
l0 -263 65 0 66 0 -3 303 c-3 290 -4 304 -26 348 -34 70 -87 125 -150 156 -49
24 -68 28 -142 28 -72 -1 -93 -5 -135 -27 -27 -14 -63 -39 -78 -55 l-28 -30
-37 35 c-20 20 -57 44 -82 55 -61 27 -170 32 -234 10z"/>
<path d="M8366 5875 c-95 -34 -159 -124 -159 -223 0 -122 34 -165 196 -242 59
-29 116 -64 127 -77 29 -38 26 -86 -9 -125 -25 -28 -36 -33 -76 -33 -42 0 -51
4 -80 38 l-33 38 -57 -15 c-31 -8 -59 -17 -62 -20 -11 -10 40 -98 71 -121 75
-57 183 -72 261 -36 99 45 158 162 135 267 -20 88 -50 119 -175 179 -155 74
-191 122 -148 195 19 33 51 50 94 50 41 0 66 -15 84 -49 l15 -29 57 15 c74 19
74 18 62 51 -39 113 -186 179 -303 137z"/>
<path d="M9710 5876 c-77 -21 -139 -58 -196 -118 -206 -216 -145 -554 124
-681 63 -30 73 -32 182 -32 104 0 120 3 173 27 140 66 231 189 250 341 l7 47
-70 0 c-61 0 -70 -2 -70 -18 0 -58 -34 -127 -89 -183 -84 -84 -176 -107 -287
-74 -118 35 -204 149 -204 270 0 115 51 206 148 263 41 24 57 27 132 27 47 0
94 -3 106 -8 18 -6 24 0 47 55 15 34 26 63 24 64 -2 2 -29 10 -62 19 -70 18
-152 18 -215 1z"/>
<path d="M11170 5876 c-62 -16 -108 -46 -163 -105 -94 -101 -107 -157 -107
-488 l0 -233 69 0 70 0 3 273 3 272 27 46 c33 55 93 99 147 106 l41 6 0 68 c0
78 -2 79 -90 55z"/>
<path d="M12166 5880 c-111 -28 -235 -131 -282 -235 -98 -213 -11 -466 194
-567 64 -32 72 -33 182 -33 107 0 119 2 170 29 30 15 72 44 93 64 l37 36 0
-62 0 -62 70 0 70 0 0 228 c0 308 -21 383 -137 493 -79 75 -164 111 -271 115
-48 2 -104 -1 -126 -6z m229 -155 c51 -25 115 -89 140 -140 15 -31 20 -60 20
-125 0 -103 -19 -145 -95 -214 -115 -103 -268 -101 -384 5 -72 65 -100 135
-93 229 7 111 60 190 160 240 56 29 69 31 137 28 47 -2 90 -11 115 -23z"/>
<path d="M14630 5875 c-120 -34 -218 -117 -274 -235 -29 -61 -31 -72 -31 -180
0 -110 2 -119 32 -181 40 -81 130 -169 210 -207 53 -25 68 -27 178 -27 109 0
125 2 177 27 136 63 248 224 248 355 l0 34 -67 -3 -68 -3 -6 -46 c-13 -86 -69
-163 -153 -207 -69 -36 -189 -38 -253 -4 -66 35 -110 78 -140 140 -22 46 -27
69 -27 127 1 84 19 129 77 192 74 81 190 114 295 83 34 -9 34 -9 58 46 13 30
24 59 24 63 0 32 -193 50 -280 26z"/>
<path d="M19510 5876 c-80 -21 -140 -59 -205 -127 -88 -93 -109 -151 -110
-289 0 -97 2 -110 31 -171 54 -113 134 -186 251 -229 53 -19 77 -22 161 -18
86 3 107 8 164 36 79 39 169 129 204 206 49 108 48 250 -4 360 -35 75 -115
162 -180 195 -94 48 -219 63 -312 37z m225 -150 c101 -47 175 -160 175 -267 0
-100 -68 -207 -164 -257 -68 -35 -177 -38 -247 -5 -57 25 -118 84 -144 138
-23 48 -32 169 -16 218 26 76 103 156 178 183 62 22 160 17 218 -10z"/>
<path d="M21830 5869 c-56 -25 -95 -62 -123 -114 -30 -57 -30 -164 1 -222 26
-50 50 -67 172 -125 97 -45 150 -91 150 -129 0 -53 -58 -109 -112 -109 -32 0
-85 34 -93 59 -8 25 -16 26 -84 5 -50 -14 -52 -17 -46 -42 9 -39 50 -88 97
-120 47 -31 152 -42 211 -23 49 16 117 78 138 125 36 79 20 197 -34 254 -12
13 -75 50 -139 83 -64 32 -124 69 -132 81 -27 38 -21 95 13 129 24 24 38 29
76 29 37 0 51 -5 70 -26 14 -15 25 -33 25 -42 0 -8 6 -12 13 -9 6 2 36 10 65
17 60 16 63 25 28 85 -59 100 -191 142 -296 94z"/>
<path d="M24613 5875 c-81 -22 -132 -52 -193 -114 -207 -207 -148 -552 117
-683 58 -28 78 -33 164 -36 110 -5 172 10 252 60 109 69 196 216 197 331 0 27
0 27 -70 27 l-70 0 0 -33 c0 -44 -53 -149 -92 -182 -83 -70 -184 -91 -284 -59
-84 26 -166 108 -189 189 -31 105 -4 216 72 292 62 62 104 78 203 77 47 -1 93
-3 103 -5 13 -3 24 10 44 54 14 31 24 60 21 63 -3 3 -30 12 -59 20 -67 17
-148 17 -216 -1z"/>
<path d="M26112 5874 c-72 -19 -127 -53 -189 -116 -221 -226 -132 -597 168
-698 53 -18 81 -21 160 -18 84 3 104 8 163 37 134 66 222 190 239 339 l5 42
-68 0 -68 0 -7 -42 c-25 -151 -165 -260 -311 -245 -102 11 -195 74 -239 162
-27 54 -28 204 -2 252 28 51 76 101 126 131 40 24 57 27 131 27 47 0 94 -3
105 -7 18 -7 24 0 48 54 15 34 26 63 24 64 -2 2 -29 10 -62 19 -72 18 -153 18
-223 -1z"/>
<path d="M27623 5875 c-143 -40 -242 -132 -293 -272 -19 -53 -22 -77 -18 -160
3 -84 8 -108 34 -164 39 -82 116 -159 203 -202 63 -31 70 -32 186 -32 111 0
124 2 177 28 129 63 230 199 244 330 l7 57 -72 0 -71 0 0 -28 c0 -84 -62 -178
-151 -227 -47 -26 -64 -30 -134 -30 -70 0 -87 4 -134 30 -30 17 -56 35 -58 40
-1 6 128 95 287 198 160 104 290 195 290 202 0 23 -85 129 -126 157 -21 15
-65 39 -97 54 -74 33 -195 42 -274 19z m253 -161 c26 -16 47 -33 47 -38 0 -6
-103 -77 -229 -158 -159 -103 -231 -145 -238 -137 -6 5 -11 42 -11 82 1 117
61 211 170 264 43 21 61 24 132 20 69 -3 89 -8 129 -33z"/>
<path d="M29029 5876 c-130 -46 -198 -206 -140 -331 26 -57 53 -78 172 -134
119 -55 149 -84 149 -141 0 -31 -7 -44 -37 -70 -32 -28 -41 -32 -77 -27 -31 4
-49 14 -73 42 l-31 36 -57 -15 c-31 -8 -59 -17 -62 -19 -8 -8 34 -81 63 -111
45 -45 100 -66 174 -66 57 0 73 5 120 33 37 21 64 48 85 81 26 43 30 59 30
121 0 62 -4 78 -30 121 -27 44 -41 54 -143 105 -139 68 -167 94 -167 150 0
105 159 139 196 42 7 -18 14 -23 27 -18 9 3 38 11 65 17 26 6 47 15 47 20 0 5
-9 25 -19 46 -54 104 -184 157 -292 118z"/>
<path d="M22902 5593 c3 -286 3 -288 29 -343 31 -67 104 -142 173 -178 45 -24
62 -27 151 -27 120 0 171 20 250 100 101 100 117 169 113 505 l-3 225 -67 3
-68 3 0 -258 c0 -158 -4 -274 -11 -298 -15 -53 -91 -129 -144 -144 -110 -30
-215 14 -268 112 -21 40 -22 56 -25 315 l-4 272 -64 0 -65 0 3 -287z"/>
</g>
</svg>
